<svg id="Layer_1" data-name="Layer 1" xmlns="http://www.w3.org/2000/svg" viewBox="0 0 1000 1000"><defs><style>.cls-1{fill:#19355f;}.cls-2{fill:#fff;}</style></defs><path class="cls-1" d="M980.39,501.5c0,266.57-216.1,482.67-482.67,482.67-168.29,0-316.47-86.13-402.85-216.72q-2.12-3.19-4.18-6.42A145.76,145.76,0,0,0,216,501.51,145.77,145.77,0,0,0,90.69,242q2.06-3.24,4.18-6.43C181.25,105,329.42,18.84,497.72,18.84,764.29,18.84,980.39,234.93,980.39,501.5Z"/><rect class="cls-2" x="387.49" y="327.71" width="101.49" height="348.44"/><rect class="cls-2" x="661.8" y="328.58" width="101.49" height="346.71"/><rect class="cls-2" x="661.8" y="250.73" width="101.49" height="253.74" transform="translate(1090.14 -334.95) rotate(90)"/></svg>